# xmcd
#
# Track frame offsets: 
#        150
#        19360
#        41859
#        76179
#        101776
#        122906
#        149172
#        177191
#        200682
#
# Disc length: 2968 seconds
#
# Revision: 0
# Processed by: cddbd v1.5.2PL0 Copyright (c) Steve Scherf et al.
# Submitted via: ExactAudioCopy v1.0b4
#
DISCID=870b9609
DTITLE=Flávio Naves Band and Deacon Jones - Legacy Of The Hammond B3
DYEAR=2011
DGENRE=Blues
TTITLE0=Late Again
TTITLE1=They Call It 'Animal"
TTITLE2=After Hours
TTITLE3=I Don't Know
TTITLE4=The Blusiest Woman
TTITLE5=Hoochie Coochie Man
TTITLE6=The Ghetto
TTITLE7=Naves Slow (Bonus Track)
TTITLE8=All About My Girl (Bonus Track)
EXTD=
EXTT0=
EXTT1=
EXTT2=
EXTT3=
EXTT4=
EXTT5=
EXTT6=
EXTT7=
EXTT8=
PLAYORDER=
